<?xml version="1.0" encoding="UTF-8" standalone="no" ?>
<!DOCTYPE svg PUBLIC "-//W3C//DTD SVG 1.1//EN" "http://www.w3.org/Graphics/SVG/1.1/DTD/svg11.dtd">
<svg xmlns="http://www.w3.org/2000/svg" xmlns:xlink="http://www.w3.org/1999/xlink" version="1.1" width="1080" height="1080" viewBox="0 0 1080 1080" xml:space="preserve">
<desc>Created with Fabric.js 5.2.4</desc>
<defs>
</defs>
<g transform="matrix(1 0 0 1 540 540)" id="016d1f8b-1ac4-463d-9e91-99c0784da5c1"  >
<rect style="stroke: none; stroke-width: 1; stroke-dasharray: none; stroke-linecap: butt; stroke-dashoffset: 0; stroke-linejoin: miter; stroke-miterlimit: 4; fill: rgb(255,255,255); fill-rule: nonzero; opacity: 1; visibility: hidden;" vector-effect="non-scaling-stroke"  x="-540" y="-540" rx="0" ry="0" width="1080" height="1080" />
</g>
<g transform="matrix(1 0 0 1 540 540)" id="b99a37b0-ceae-4707-be49-554fe7385f65"  >
</g>
<g transform="matrix(1 0 0 1 540 540)"  >
<g style="" vector-effect="non-scaling-stroke"   >
		<g transform="matrix(1 0 0 1 0 0)"  >
<path style="stroke: none; stroke-width: 1; stroke-dasharray: none; stroke-linecap: butt; stroke-dashoffset: 0; stroke-linejoin: miter; stroke-miterlimit: 4; fill: rgb(13,110,253); fill-rule: nonzero; opacity: 1;" vector-effect="non-scaling-stroke"  transform=" translate(-8, -8)" d="M 14 1 C 14.552284749830793 1 15 1.4477152501692063 15 1.9999999999999998 L 15 14 C 15 14.552284749830793 14.552284749830793 15 14 15 L 2 15 C 1.4477152501692065 15 1 14.552284749830793 1 14 L 1 2 C 1 1.4477152501692065 1.4477152501692065 1 2 1 L 14 1 z M 2 0 C 0.8954305003384131 0 0 0.8954305003384131 0 2 L 0 14 C 0 15.104569499661586 0.8954305003384131 16 2 16 L 14 16 C 15.104569499661586 16 16 15.104569499661586 16 14 L 16 2 C 16 0.8954305003384131 15.104569499661586 0 14 0 L 2 0 z" stroke-linecap="round" />
</g>
		<g transform="matrix(1 0 0 1 -0.03 -0.01)"  >
<path style="stroke: none; stroke-width: 1; stroke-dasharray: none; stroke-linecap: butt; stroke-dashoffset: 0; stroke-linejoin: miter; stroke-miterlimit: 4; fill: rgb(13,110,253); fill-rule: nonzero; opacity: 1;" vector-effect="non-scaling-stroke"  transform=" translate(-7.97, -7.99)" d="M 5.255 5.786 C 5.2522331557602415 5.851270980130691 5.276531820870211 5.914789338981386 5.322155402451304 5.961548777365326 C 5.3677789840323955 6.008308215749268 5.430680723919613 6.034161226335524 5.4959999999999996 6.0329999999999995 L 6.321 6.0329999999999995 C 6.459 6.0329999999999995 6.569 5.919999999999999 6.587 5.7829999999999995 C 6.677 5.127 7.127 4.648999999999999 7.929 4.648999999999999 C 8.615 4.648999999999999 9.243 4.991999999999999 9.243 5.816999999999999 C 9.243 6.451999999999999 8.869 6.744 8.278 7.187999999999999 C 7.605 7.676999999999999 7.072000000000001 8.248 7.11 9.174999999999999 L 7.113 9.392 C 7.115184383791009 9.528506580667258 7.226475944271362 9.638017476179925 7.363 9.638 L 8.174000000000001 9.638 C 8.3120711874577 9.638 8.424000000000001 9.526071187457699 8.424000000000001 9.388 L 8.424000000000001 9.283 C 8.424000000000001 8.565 8.697000000000001 8.356 9.434000000000001 7.797 C 10.043000000000001 7.334 10.678 6.819999999999999 10.678 5.741 C 10.678 4.2299999999999995 9.402000000000001 3.4999999999999996 8.005 3.4999999999999996 C 6.738000000000001 3.4999999999999996 5.350000000000001 4.09 5.255000000000001 5.786 z M 6.811999999999999 11.549 C 6.811999999999999 12.081999999999999 7.236999999999999 12.475999999999999 7.821999999999999 12.475999999999999 C 8.431 12.475999999999999 8.85 12.081999999999999 8.85 11.549 C 8.85 10.997 8.43 10.609 7.821 10.609 C 7.237 10.609 6.811999999999999 10.997 6.811999999999999 11.549 z" stroke-linecap="round" />
</g>
</g>
</g>
<g transform="matrix(NaN NaN NaN NaN 0 0)"  >
<g style=""   >
</g>
</g>
<g transform="matrix(NaN NaN NaN NaN 0 0)"  >
<g style=""   >
</g>
</g>
</svg>